<svg width="94" height="94" viewBox="0 0 94 94" fill="none" xmlns="http://www.w3.org/2000/svg">
<g filter="url(#filter0_d_2283_179)">
<path d="M69 10H15C12.2386 10 10 12.2386 10 15V69C10 71.7614 12.2386 74 15 74H69C71.7614 74 74 71.7614 74 69V15C74 12.2386 71.7614 10 69 10Z" fill="white"/>
</g>
<mask id="mask0_2283_179" style="mask-type:alpha" maskUnits="userSpaceOnUse" x="22" y="22" width="40" height="40">
<rect x="22" y="22" width="40" height="40" fill="#0078D4"/>
</mask>
<g mask="url(#mask0_2283_179)">
<path d="M22 52V49.6528C22 48.5404 22.588 47.635 23.7639 46.9366C24.9398 46.2381 26.485 45.8889 28.3993 45.8889C28.745 45.8889 29.0773 45.8959 29.3964 45.9098C29.7155 45.9236 30.0278 45.9551 30.3333 46.0042C30.0556 46.5199 29.8472 47.0492 29.7083 47.5921C29.5694 48.135 29.5 48.7016 29.5 49.2917V52H22ZM32 52V49.2917C32 48.4028 32.2431 47.5903 32.7292 46.8542C33.2153 46.1181 33.9028 45.4722 34.7917 44.9167C35.6806 44.3611 36.7431 43.9444 37.9792 43.6667C39.2153 43.3889 40.5556 43.25 42 43.25C43.4722 43.25 44.8264 43.3889 46.0625 43.6667C47.2986 43.9444 48.3611 44.3611 49.25 44.9167C50.1389 45.4722 50.8194 46.1181 51.2917 46.8542C51.7639 47.5903 52 48.4028 52 49.2917V52H32ZM54.5 52V49.2917C54.5 48.6831 54.4375 48.1097 54.3125 47.5714C54.1875 47.0331 53.9907 46.5114 53.7222 46.0063C54.0278 45.9558 54.3373 45.9236 54.6506 45.9098C54.964 45.8959 55.2841 45.8889 55.6111 45.8889C57.5278 45.8889 59.0718 46.2317 60.243 46.9172C61.4143 47.6027 62 48.5146 62 49.6528V52H54.5ZM34.8472 49.2223H49.1667V49.0556C49.0741 48.1852 48.3496 47.463 46.9931 46.8889C45.6366 46.3148 43.9722 46.0278 42 46.0278C40.0278 46.0278 38.3634 46.3148 37.0069 46.8889C35.6504 47.463 34.9305 48.1944 34.8472 49.0833V49.2223ZM28.3769 44.5C27.5423 44.5 26.8264 44.2008 26.2292 43.6025C25.6319 43.0041 25.3333 42.2847 25.3333 41.4445C25.3333 40.5926 25.6325 39.8704 26.2309 39.2778C26.8293 38.6852 27.5486 38.3889 28.3889 38.3889C29.2407 38.3889 29.963 38.6852 30.5555 39.2778C31.1481 39.8704 31.4444 40.5966 31.4444 41.4565C31.4444 42.2911 31.1481 43.007 30.5555 43.6042C29.963 44.2014 29.2367 44.5 28.3769 44.5ZM55.5991 44.5C54.7645 44.5 54.0486 44.2008 53.4514 43.6025C52.8542 43.0041 52.5556 42.2847 52.5556 41.4445C52.5556 40.5926 52.8548 39.8704 53.4531 39.2778C54.0515 38.6852 54.7708 38.3889 55.6111 38.3889C56.463 38.3889 57.1852 38.6852 57.7778 39.2778C58.3704 39.8704 58.6667 40.5966 58.6667 41.4565C58.6667 42.2911 58.3704 43.007 57.7778 43.6042C57.1852 44.2014 56.4589 44.5 55.5991 44.5ZM42 42C40.6111 42 39.4306 41.5139 38.4583 40.5417C37.4861 39.5694 37 38.3889 37 37C37 35.5833 37.4861 34.3958 38.4583 33.4375C39.4306 32.4792 40.6111 32 42 32C43.4167 32 44.6042 32.4792 45.5625 33.4375C46.5208 34.3958 47 35.5833 47 37C47 38.3889 46.5208 39.5694 45.5625 40.5417C44.6042 41.5139 43.4167 42 42 42ZM42.0098 39.2222C42.6421 39.2222 43.169 39.0083 43.5903 38.5805C44.0116 38.1527 44.2222 37.6226 44.2222 36.9902C44.2222 36.3579 44.0102 35.831 43.5862 35.4097C43.1621 34.9884 42.6366 34.7778 42.0098 34.7778C41.3829 34.7778 40.8542 34.9898 40.4236 35.4138C39.993 35.8379 39.7778 36.3634 39.7778 36.9902C39.7778 37.6171 39.9917 38.1458 40.4195 38.5764C40.8473 39.007 41.3774 39.2222 42.0098 39.2222Z" fill="#0078D4"/>
</g>
<defs>
<filter id="filter0_d_2283_179" x="5" y="5" width="84" height="84" filterUnits="userSpaceOnUse" color-interpolation-filters="sRGB">
<feFlood flood-opacity="0" result="BackgroundImageFix"/>
<feColorMatrix in="SourceAlpha" type="matrix" values="0 0 0 0 0 0 0 0 0 0 0 0 0 0 0 0 0 0 127 0" result="hardAlpha"/>
<feOffset dx="5" dy="5"/>
<feGaussianBlur stdDeviation="5"/>
<feColorMatrix type="matrix" values="0 0 0 0 0.0862745 0 0 0 0 0.360784 0 0 0 0 0.768627 0 0 0 0.161 0"/>
<feBlend mode="normal" in2="BackgroundImageFix" result="effect1_dropShadow_2283_179"/>
<feBlend mode="normal" in="SourceGraphic" in2="effect1_dropShadow_2283_179" result="shape"/>
</filter>
</defs>
</svg>
