<svg width="94" height="94" viewBox="0 0 94 94" fill="none" xmlns="http://www.w3.org/2000/svg">
<g filter="url(#filter0_d_2283_187)">
<path d="M69 10H15C12.2386 10 10 12.2386 10 15V69C10 71.7614 12.2386 74 15 74H69C71.7614 74 74 71.7614 74 69V15C74 12.2386 71.7614 10 69 10Z" fill="white"/>
</g>
<mask id="mask0_2283_187" style="mask-type:alpha" maskUnits="userSpaceOnUse" x="22" y="22" width="40" height="40">
<rect x="22" y="22" width="40" height="40" fill="#31B1A2"/>
</mask>
<g mask="url(#mask0_2283_187)">
<path d="M25.332 37.8332V31.4443C25.332 30.6943 25.6075 30.0438 26.1584 29.4929C26.7093 28.942 27.3598 28.6665 28.1098 28.6665H55.8876C56.6376 28.6665 57.2881 28.942 57.839 29.4929C58.3899 30.0438 58.6654 30.6943 58.6654 31.4443V41.7221H55.8876V31.4443H28.1098V37.8332H25.332ZM33.6654 50.0554C33.3968 50.0554 33.1515 49.9929 32.9292 49.8679C32.707 49.7429 32.5265 49.5554 32.3876 49.3054L29.457 43.3887H25.332V40.611H30.332C30.5784 40.611 30.8137 40.6781 31.0377 40.8123C31.2617 40.9466 31.4339 41.1387 31.5542 41.3887L33.6654 45.5554L39.082 34.722C39.2024 34.4813 39.3772 34.3054 39.6065 34.1943C39.8358 34.0832 40.0765 34.0276 40.3287 34.0276C40.5809 34.0276 40.8228 34.0832 41.0542 34.1943C41.2857 34.3054 41.4617 34.4813 41.582 34.722L44.7348 41.0554C44.3274 41.3054 43.9362 41.5832 43.5612 41.8888C43.1862 42.1943 42.832 42.5184 42.4987 42.861L40.332 38.472L34.8876 49.3054C34.7744 49.5554 34.6047 49.7429 34.3783 49.8679C34.152 49.9929 33.9143 50.0554 33.6654 50.0554ZM40.7348 55.3332H28.1098C27.3598 55.3332 26.7093 55.0577 26.1584 54.5068C25.6075 53.9559 25.332 53.3054 25.332 52.5554V46.1665H28.1098V52.5554H39.7348C39.8367 53.0461 39.971 53.523 40.1376 53.986C40.3043 54.4489 40.5034 54.898 40.7348 55.3332ZM50.3291 58.3887C48.0996 58.3887 46.2001 57.603 44.6307 56.0316C43.0612 54.4602 42.2765 52.5597 42.2765 50.3302C42.2765 48.1007 43.0622 46.2012 44.6336 44.6318C46.205 43.0624 48.1055 42.2776 50.335 42.2776C52.5645 42.2776 54.464 43.0633 56.0334 44.6347C57.6029 46.2061 58.3876 48.1066 58.3876 50.3361C58.3876 52.5656 57.6019 54.4651 56.0305 56.0345C54.4591 57.604 52.5586 58.3887 50.3291 58.3887ZM50.6654 51.1665L54.457 47.3748L53.2904 46.2082L49.4987 49.9998L50.6654 51.1665Z" fill="#31B1A2"/>
</g>
<defs>
<filter id="filter0_d_2283_187" x="5" y="5" width="84" height="84" filterUnits="userSpaceOnUse" color-interpolation-filters="sRGB">
<feFlood flood-opacity="0" result="BackgroundImageFix"/>
<feColorMatrix in="SourceAlpha" type="matrix" values="0 0 0 0 0 0 0 0 0 0 0 0 0 0 0 0 0 0 127 0" result="hardAlpha"/>
<feOffset dx="5" dy="5"/>
<feGaussianBlur stdDeviation="5"/>
<feColorMatrix type="matrix" values="0 0 0 0 0.0862745 0 0 0 0 0.360784 0 0 0 0 0.768627 0 0 0 0.161 0"/>
<feBlend mode="normal" in2="BackgroundImageFix" result="effect1_dropShadow_2283_187"/>
<feBlend mode="normal" in="SourceGraphic" in2="effect1_dropShadow_2283_187" result="shape"/>
</filter>
</defs>
</svg>
