<svg width="94" height="94" viewBox="0 0 94 94" fill="none" xmlns="http://www.w3.org/2000/svg">
<g filter="url(#filter0_d_2283_243)">
<path d="M69 10H15C12.2386 10 10 12.2386 10 15V69C10 71.7614 12.2386 74 15 74H69C71.7614 74 74 71.7614 74 69V15C74 12.2386 71.7614 10 69 10Z" fill="white"/>
</g>
<mask id="mask0_2283_243" style="mask-type:alpha" maskUnits="userSpaceOnUse" x="22" y="22" width="40" height="40">
<rect x="22" y="22" width="40" height="40" fill="#F0A30C"/>
</mask>
<g mask="url(#mask0_2283_243)">
<path d="M44.7791 44.2221C43.3902 44.2221 42.2096 43.736 41.2374 42.7638C40.2652 41.7915 39.7791 40.611 39.7791 39.2221C39.7791 37.8332 40.2652 36.6526 41.2374 35.6804C42.2096 34.7082 43.3902 34.2221 44.7791 34.2221C46.1679 34.2221 47.3485 34.7082 48.3207 35.6804C49.2929 36.6526 49.7791 37.8332 49.7791 39.2221C49.7791 40.611 49.2929 41.7915 48.3207 42.7638C47.3485 43.736 46.1679 44.2221 44.7791 44.2221ZM32.0013 49.7776C31.2374 49.7776 30.5834 49.5056 30.0395 48.9617C29.4955 48.4177 29.2235 47.7638 29.2235 46.9999V31.4443C29.2235 30.6804 29.4955 30.0264 30.0395 29.4825C30.5834 28.9385 31.2374 28.6665 32.0013 28.6665H57.5569C58.3208 28.6665 58.9747 28.9385 59.5187 29.4825C60.0626 30.0264 60.3346 30.6804 60.3346 31.4443V46.9999C60.3346 47.7638 60.0626 48.4177 59.5187 48.9617C58.9747 49.5056 58.3208 49.7776 57.5569 49.7776H32.0013ZM35.8902 46.9999H53.668C53.668 45.9165 54.0453 44.9976 54.7999 44.2429C55.5546 43.4883 56.4736 43.111 57.5569 43.111V35.3332C56.4736 35.3332 55.5546 34.9559 54.7999 34.2012C54.0453 33.4466 53.668 32.5276 53.668 31.4443H35.8902C35.8902 32.5276 35.5129 33.4466 34.7582 34.2012C34.0036 34.9559 33.0846 35.3332 32.0013 35.3332V43.111C33.0846 43.111 34.0036 43.4883 34.7582 44.2429C35.5129 44.9976 35.8902 45.9165 35.8902 46.9999ZM55.3346 55.3332H26.4457C25.6818 55.3332 25.0279 55.0612 24.4839 54.5172C23.94 53.9732 23.668 53.3193 23.668 52.5554V33.6665H26.4457V52.5554H55.3346V55.3332Z" fill="#F0A30C"/>
</g>
<defs>
<filter id="filter0_d_2283_243" x="5" y="5" width="84" height="84" filterUnits="userSpaceOnUse" color-interpolation-filters="sRGB">
<feFlood flood-opacity="0" result="BackgroundImageFix"/>
<feColorMatrix in="SourceAlpha" type="matrix" values="0 0 0 0 0 0 0 0 0 0 0 0 0 0 0 0 0 0 127 0" result="hardAlpha"/>
<feOffset dx="5" dy="5"/>
<feGaussianBlur stdDeviation="5"/>
<feColorMatrix type="matrix" values="0 0 0 0 0.0862745 0 0 0 0 0.360784 0 0 0 0 0.768627 0 0 0 0.161 0"/>
<feBlend mode="normal" in2="BackgroundImageFix" result="effect1_dropShadow_2283_243"/>
<feBlend mode="normal" in="SourceGraphic" in2="effect1_dropShadow_2283_243" result="shape"/>
</filter>
</defs>
</svg>
