<svg width="94" height="94" viewBox="0 0 94 94" fill="none" xmlns="http://www.w3.org/2000/svg">
<g filter="url(#filter0_d_2283_171)">
<path d="M69 10H15C12.2386 10 10 12.2386 10 15V69C10 71.7614 12.2386 74 15 74H69C71.7614 74 74 71.7614 74 69V15C74 12.2386 71.7614 10 69 10Z" fill="white"/>
</g>
<mask id="mask0_2283_171" style="mask-type:alpha" maskUnits="userSpaceOnUse" x="22" y="22" width="40" height="40">
<rect x="22" y="22" width="40" height="40" fill="#DD4910"/>
</mask>
<g mask="url(#mask0_2283_171)">
<path d="M25.9318 51.8474L23.668 50.1946L31.668 37.4168L36.6561 43.2502L43.3068 32.4724L47.8485 39.2363C47.3393 39.2826 46.8508 39.3682 46.3833 39.4932C45.9156 39.6182 45.4504 39.7733 44.9874 39.9585L43.4318 37.5835L37.0831 47.9307L32.0291 42.0557L25.9318 51.8474ZM58.3486 60.3335L52.8902 54.8752C52.3161 55.2826 51.6888 55.5928 51.0083 55.8057C50.3277 56.0187 49.6263 56.1252 48.9041 56.1252C46.8979 56.1252 45.1927 55.4227 43.7883 54.0177C42.384 52.6128 41.6819 50.9067 41.6819 48.8997C41.6819 46.8926 42.3844 45.1877 43.7893 43.7849C45.1942 42.3821 46.9003 41.6807 48.9073 41.6807C50.9144 41.6807 52.6194 42.3829 54.0221 43.7872C55.4249 45.1915 56.1263 46.8968 56.1263 48.903C56.1263 49.6252 56.0152 50.3266 55.793 51.0071C55.5707 51.6877 55.2652 52.333 54.8763 52.9432L60.3346 58.3474L58.3486 60.3335ZM48.9002 53.3474C50.1435 53.3474 51.1957 52.9181 52.0569 52.0596C52.918 51.2011 53.3486 50.1502 53.3486 48.9069C53.3486 47.6635 52.9193 46.6113 52.0608 45.7502C51.2023 44.8891 50.1513 44.4585 48.908 44.4585C47.6646 44.4585 46.6124 44.8877 45.7513 45.7462C44.8902 46.6047 44.4596 47.6557 44.4596 48.899C44.4596 50.1424 44.8889 51.1946 45.7474 52.0557C46.6059 52.9169 47.6568 53.3474 48.9002 53.3474ZM52.1957 39.7918C51.742 39.6066 51.2721 39.4724 50.786 39.3891C50.2999 39.3057 49.7976 39.2409 49.2791 39.1946L58.0708 25.3335L60.3346 26.9862L52.1957 39.7918Z" fill="#DD4910"/>
</g>
<defs>
<filter id="filter0_d_2283_171" x="5" y="5" width="84" height="84" filterUnits="userSpaceOnUse" color-interpolation-filters="sRGB">
<feFlood flood-opacity="0" result="BackgroundImageFix"/>
<feColorMatrix in="SourceAlpha" type="matrix" values="0 0 0 0 0 0 0 0 0 0 0 0 0 0 0 0 0 0 127 0" result="hardAlpha"/>
<feOffset dx="5" dy="5"/>
<feGaussianBlur stdDeviation="5"/>
<feColorMatrix type="matrix" values="0 0 0 0 0.0862745 0 0 0 0 0.360784 0 0 0 0 0.768627 0 0 0 0.161 0"/>
<feBlend mode="normal" in2="BackgroundImageFix" result="effect1_dropShadow_2283_171"/>
<feBlend mode="normal" in="SourceGraphic" in2="effect1_dropShadow_2283_171" result="shape"/>
</filter>
</defs>
</svg>
