<svg width="703" height="144" viewBox="0 0 703 144" fill="none" xmlns="http://www.w3.org/2000/svg">
<g clip-path="url(#clip0_151_4)">
<path d="M227.492 142.996V85.8349L177.114 5.03342H205.792L240.861 64.3245L275.35 5.03342H303.253L253.261 85.6432V142.996H227.492Z" fill="#404A6A"/>
<path d="M351.666 124.783V109.087C351.666 106.761 351.438 104.797 350.984 103.176C350.531 101.565 349.595 100.244 348.175 99.2046C346.755 98.1718 344.752 97.4322 342.171 96.9781C339.584 96.5276 336.162 96.2994 331.903 96.2994H328.995C321.634 96.2994 316.658 97.2057 314.074 99.0094C311.49 100.823 310.199 104.115 310.199 108.891V112.576C310.199 116.71 311.391 119.775 313.784 121.775C316.171 123.781 320.594 124.783 327.056 124.783H351.666ZM376.079 124.783C376.079 131.631 374.528 136.381 371.43 139.021C368.327 141.672 362.966 142.996 355.347 142.996H323.764C309.939 142.996 300.155 140.417 294.406 135.243C288.656 130.081 285.787 122.648 285.787 112.962V108.699C285.787 97.9792 288.95 90.1928 295.276 85.3489C301.611 80.5052 311.49 78.0874 324.926 78.0874C331.64 78.0874 337.227 78.6354 341.684 79.7317C346.143 80.8322 349.466 82.0928 351.666 83.5094V80.025C351.666 76.5328 351.308 73.6265 350.6 71.3005C349.884 68.9756 348.688 67.1328 347.015 65.7761C345.332 64.4218 343.042 63.486 340.136 62.9672C337.227 62.4532 333.574 62.1942 329.186 62.1942C326.731 62.1942 324.019 62.1942 321.048 62.1942C318.076 62.1942 315.071 62.2265 312.042 62.288C309.004 62.3568 306 62.4193 303.028 62.4844C300.058 62.5505 297.344 62.5822 294.894 62.5822L298.958 42.236C302.58 42.1109 307.096 42.0114 312.524 41.9453C317.95 41.8828 323.89 41.85 330.348 41.85C346.106 41.85 357.671 44.6276 365.031 50.1781C372.396 55.7344 376.079 64.4532 376.079 76.3396V124.783Z" fill="#404A6A"/>
<path d="M410.176 42.236L434.59 117.221L459.78 42.236H485.358L448.348 142.996H420.252L383.058 42.236H410.176Z" fill="#404A6A"/>
<path d="M517.511 142.996H492.32V76.7292C492.32 70.2666 493.224 64.8089 495.039 60.3541C496.843 55.8948 499.492 52.3125 502.976 49.5989C506.467 46.8854 510.73 44.9166 515.767 43.6874C520.806 42.462 526.555 41.85 533.01 41.85C537.919 41.85 542.116 41.85 545.604 41.85C549.094 41.85 552.515 41.9141 555.874 42.0432L551.807 62.9672C549.222 62.8396 546.384 62.7448 543.279 62.677C540.184 62.6136 537.595 62.5822 535.531 62.5822C531.394 62.5822 528.167 62.9672 525.842 63.7422C523.516 64.5182 521.706 65.6484 520.415 67.1328C519.127 68.6213 518.316 70.4948 517.995 72.7552C517.671 75.0166 517.511 77.6969 517.511 80.7953V142.996Z" fill="#404A6A"/>
<path d="M568.861 42.236H594.047V142.996H568.861V42.236ZM596.569 13.7526C596.569 18.6656 595.469 22.1822 593.272 24.3114C591.08 26.4428 587.199 27.5104 581.648 27.5104C576.096 27.5104 572.216 26.4428 570.02 24.3114C567.827 22.1822 566.727 18.6656 566.727 13.7526C566.727 8.97609 567.827 5.4881 570.02 3.2921C572.216 1.09477 576.096 -0.00256309 581.648 -0.00256309C587.199 -0.00256309 591.08 1.09477 593.272 3.2921C595.469 5.4881 596.569 8.97609 596.569 13.7526Z" fill="#404A6A"/>
<path d="M677.867 87.0832C677.867 81.4583 677.559 76.8974 676.949 73.413C676.339 69.926 675.265 67.2646 673.737 65.428C672.209 63.5936 670.071 62.3723 667.317 61.7578C664.563 61.1474 660.991 60.8411 656.584 60.8411C652.18 60.8411 648.569 61.1474 645.757 61.7578C642.943 62.3723 640.772 63.5936 639.245 65.428C637.712 67.2646 636.648 69.926 636.036 73.413C635.417 76.8974 635.119 81.4583 635.119 87.0832V97.9088C635.119 103.535 635.417 108.061 636.036 111.487C636.648 114.916 637.712 117.543 639.245 119.375C640.772 121.21 642.943 122.435 645.757 123.044C648.569 123.655 652.18 123.962 656.584 123.962C660.991 123.962 664.563 123.655 667.317 123.044C670.071 122.435 672.209 121.21 673.737 119.375C675.265 117.543 676.339 114.916 676.949 111.487C677.559 108.061 677.867 103.535 677.867 97.9088V87.0832ZM656.584 41.7578C664.779 41.7578 671.747 42.4963 677.497 43.966C683.245 45.4296 687.957 47.9062 691.629 51.3922C695.296 54.8786 697.956 59.5572 699.608 65.428C701.257 71.3004 702.085 78.6431 702.085 87.4479V97.3556C702.085 106.164 701.257 113.503 699.608 119.375C697.956 125.245 695.296 129.922 691.629 133.412C687.957 136.896 683.245 139.373 677.497 140.838C671.747 142.308 664.779 143.04 656.584 143.04C648.265 143.04 641.232 142.308 635.484 140.838C629.733 139.373 625.028 136.896 621.359 133.412C617.687 129.922 615.027 125.245 613.377 119.375C611.729 113.503 610.901 106.164 610.901 97.3556V87.4479C610.901 78.6431 611.729 71.3004 613.377 65.428C615.027 59.5572 617.687 54.8786 621.359 51.3922C625.028 47.9062 629.733 45.4296 635.484 43.966C641.232 42.4963 648.265 41.7578 656.584 41.7578Z" fill="#404A6A"/>
<path d="M29.8807 5.01475L0 50.3906L58.9145 142.954L88.4448 96.8089L29.8807 5.01475Z" fill="#219D5D"/>
<path d="M88.6407 50.9427L118.001 5.08274H59.2964L88.6407 50.9427Z" fill="#24B269"/>
<path d="M117.982 50.651L88.4446 96.8089L58.917 142.954L58.9394 142.991H117.966L117.982 142.954L177.078 50.9453L147.746 5.01476L117.982 50.651Z" fill="#24B269"/>
<path d="M58.9072 142.954L58.9092 142.945L58.9108 142.948L58.9072 142.954Z" fill="#C6C5C5"/>
<path d="M58.9108 142.948L58.9092 142.945L74.3301 74.6937L88.4348 96.8089L58.9108 142.948Z" fill="#197947"/>
</g>
<defs>
<clipPath id="clip0_151_4">
<rect width="702.08" height="143.04" fill="white"/>
</clipPath>
</defs>
</svg>
